# xmcd CD database file
#
# Track frame offsets:
#	150
#	29525
#	49920
#	74083
#	96793
#	115690
#	143108
#	171130
#	190365
#	216385
#	253233
#
# Disc length: 3834 seconds
#
# Revision: 0
# Processed by: cddbd v1.5.1PL0 Copyright (c) Steve Scherf et al.
# Submitted via: CDex 1.51
#
DISCID=ad0ef80b
DTITLE=Bruce Paulson - Minnesota
DYEAR=1993
DGENRE=Jazz
TTITLE0=Minnesota
TTITLE1=The Eyes Have It
TTITLE2=Stablemates
TTITLE3=Camouflage
TTITLE4=We'll Be Together Again
TTITLE5=Have Lunch Now
TTITLE6=Blue Notes
TTITLE7=If You Could See Me Now
TTITLE8=The Empty Quarter
TTITLE9=I Hear A Rhapsody
TTITLE10=Message From Art
EXTD=YEAR: 1993
EXTT0=
EXTT1=
EXTT2=
EXTT3=
EXTT4=
EXTT5=
EXTT6=
EXTT7=
EXTT8=
EXTT9=
EXTT10=
PLAYORDER=
